<svg width="153" height="130" viewBox="0 0 153 130" fill="none" xmlns="http://www.w3.org/2000/svg">
<path d="M88.5189 65.2169H80.3681C80.3283 69.8717 78.9172 74.4106 76.3126 78.2616C73.708 82.1125 70.0264 85.1032 65.7318 86.8567C61.4372 88.6102 56.7218 89.048 52.1798 88.115C47.6378 87.182 43.4725 84.9199 40.2087 81.6139C36.945 78.3078 34.7289 74.1057 33.8397 69.5371C32.9505 64.9685 33.428 60.2378 35.212 55.9412C36.9961 51.6446 40.0068 47.9744 43.8648 45.3931C47.7228 42.8118 52.2555 41.4349 56.8915 41.436V33.2517C51.7038 33.2717 46.6005 34.5727 42.0316 37.0402C37.4627 39.5076 33.5685 43.0657 30.6921 47.4007C27.8157 51.7358 26.0455 56.7148 25.5375 61.8988C25.0295 67.0828 25.7993 72.3127 27.7792 77.1275C29.759 81.9424 32.8879 86.1943 36.8903 89.5085C40.8926 92.8227 45.6455 95.0974 50.7299 96.1323C55.8144 97.1671 61.0742 96.9302 66.046 95.4424C71.0177 93.9547 75.5486 91.2617 79.2394 87.601C79.7824 87.0619 80.307 86.5045 80.8073 85.9348V95.6934C80.0432 99.3094 78.6335 102.757 76.6465 105.869C72.266 112.607 65.7379 116.056 57.2515 116.056V124.24C71.4667 124.24 79.3553 116.669 83.4856 110.316C86.1669 106.163 88.0097 101.521 88.9094 96.6552L88.9521 96.3611V65.2414L88.5189 65.2169Z" fill="#F3F4F6"/>
<path d="M96.1085 32.2348C87.7406 32.2018 79.7022 35.507 73.7607 41.4237C73.2116 41.9689 72.6808 42.5325 72.1805 43.1083V33.3435C72.9471 29.6358 74.3954 26.1041 76.4512 22.9295C80.8256 16.3196 87.3048 12.9626 95.6998 12.9626V4.78442C81.4906 4.78442 73.596 12.3438 69.4656 18.7026C66.7864 22.8574 64.9419 27.498 64.0357 32.3634L63.9991 32.6636V63.7833H72.6015C72.6425 59.1302 74.0541 54.5933 76.6585 50.7443C79.2629 46.8953 82.9435 43.9064 87.2367 42.1542C91.53 40.4019 96.2436 39.9647 100.784 40.8976C105.324 41.8306 109.488 44.0919 112.75 47.3967C116.013 50.7016 118.228 54.902 119.117 59.4689C120.007 64.0358 119.53 68.7647 117.747 73.0599C115.964 77.3551 112.955 81.0244 109.099 83.6055C105.243 86.1866 100.712 87.564 96.078 87.5642V95.7485C104.466 95.7485 112.511 92.4027 118.442 86.4471C124.373 80.4915 127.705 72.4141 127.705 63.9916C127.705 55.5692 124.373 47.4917 118.442 41.5361C112.511 35.5806 104.466 32.2348 96.078 32.2348H96.1085Z" fill="#F3F4F6"/>
<path d="M153 63.0972V65.7129H148.192C144.076 65.7129 142.018 68.149 142.018 73.0212V114.916C142.018 124.31 137.215 129.006 127.608 129.006H124.173V126.378H128.566C135.704 126.378 139.273 122.566 139.273 114.941V73.0457C139.273 70.5953 139.614 68.684 140.304 67.3914C141.047 66.0575 142.239 65.0326 143.666 64.5C142.236 63.9692 141.043 62.9411 140.304 61.6024C139.614 60.3221 139.273 58.4353 139.273 55.9543V14.0897C139.273 6.46491 135.704 2.65049 128.566 2.64641H124.173V0H127.608C137.211 0 142.014 4.69655 142.018 14.0897V55.9543C142.018 60.7325 144.076 63.1217 148.192 63.1217L153 63.0972ZM4.80146 63.0972C8.92164 63.0972 10.9817 60.7162 10.9817 55.9543V14.0897C10.9817 4.69655 15.7852 0 25.3922 0H28.8271V2.61578H24.4344C17.2962 2.61578 13.7272 6.4404 13.7272 14.0897V55.9543C13.7272 58.4047 13.3855 60.3221 12.6961 61.6024C11.957 62.9411 10.7642 63.9692 9.33448 64.5C10.7603 65.0311 11.9518 66.0537 12.6961 67.3853C13.3855 68.6779 13.7272 70.5586 13.7272 73.0396V114.935C13.7272 122.564 17.2962 126.376 24.4344 126.372H28.8271V128.994H25.3922C15.7852 128.994 10.9817 124.297 10.9817 114.904V73.0457C10.9817 68.1776 8.92164 65.7415 4.80146 65.7374H0V63.0972H4.80146Z" fill="#059669"/>
</svg>